<?xml version="1.0" encoding="UTF-8"?><svg xmlns="http://www.w3.org/2000/svg" xmlns:xlink="http://www.w3.org/1999/xlink" fill-opacity="1" color-rendering="auto" color-interpolation="auto" text-rendering="auto" stroke="black" stroke-linecap="square" width="1012" stroke-miterlimit="10" shape-rendering="auto" stroke-opacity="1" fill="black" stroke-dasharray="none" font-weight="normal" stroke-width="1" height="1002" font-family="'Dialog'" font-style="normal" stroke-linejoin="miter" font-size="12px" stroke-dashoffset="0" image-rendering="auto">
  <!--Generated by ySVG 2.5-->
  <defs id="genericDefs"/>
  <g>
    <defs id="defs1">
      <clipPath clipPathUnits="userSpaceOnUse" id="clipPath1">
        <path d="M0 0 L1012 0 L1012 1002 L0 1002 L0 0 Z"/>
      </clipPath>
      <clipPath clipPathUnits="userSpaceOnUse" id="clipPath2">
        <path d="M348 -393 L1360 -393 L1360 609 L348 609 L348 -393 Z"/>
      </clipPath>
      <clipPath clipPathUnits="userSpaceOnUse" id="clipPath3">
        <path d="M652 271 L652 389 L796 389 L796 271 Z"/>
      </clipPath>
      <clipPath clipPathUnits="userSpaceOnUse" id="clipPath4">
        <path d="M621 12 L621 191 L828 191 L828 12 Z"/>
      </clipPath>
      <clipPath clipPathUnits="userSpaceOnUse" id="clipPath5">
        <path d="M898 281 L898 378 L1042 378 L1042 281 Z"/>
      </clipPath>
      <clipPath clipPathUnits="userSpaceOnUse" id="clipPath6">
        <path d="M891 28 L891 174 L1048 174 L1048 28 Z"/>
      </clipPath>
      <clipPath clipPathUnits="userSpaceOnUse" id="clipPath7">
        <path d="M1200 7 L1200 88 L1344 88 L1344 7 Z"/>
      </clipPath>
      <clipPath clipPathUnits="userSpaceOnUse" id="clipPath8">
        <path d="M1200 133 L1200 214 L1344 214 L1344 133 Z"/>
      </clipPath>
      <clipPath clipPathUnits="userSpaceOnUse" id="clipPath9">
        <path d="M1200 260 L1200 341 L1344 341 L1344 260 Z"/>
      </clipPath>
      <clipPath clipPathUnits="userSpaceOnUse" id="clipPath10">
        <path d="M393 271 L393 434 L527 434 L527 271 Z"/>
      </clipPath>
      <clipPath clipPathUnits="userSpaceOnUse" id="clipPath11">
        <path d="M363 -377 L363 192 L556 192 L556 -377 Z"/>
      </clipPath>
    </defs>
    <g fill="white" text-rendering="geometricPrecision" shape-rendering="geometricPrecision" transform="translate(-348,393)" stroke="white">
      <rect x="348" width="1012" height="1002" y="-393" clip-path="url(#clipPath2)" stroke="none"/>
    </g>
    <g fill="rgb(255,255,153)" text-rendering="geometricPrecision" shape-rendering="geometricPrecision" transform="matrix(1,0,0,1,-348,393)" stroke="rgb(255,255,153)">
      <rect x="652.6" width="144" height="118" y="271.4" clip-path="url(#clipPath2)" stroke="none"/>
    </g>
    <g text-rendering="geometricPrecision" stroke-miterlimit="1.45" shape-rendering="geometricPrecision" transform="matrix(1,0,0,1,-348,393)" stroke-linecap="butt">
      <rect fill="none" x="652.6" width="144" height="118" y="271.4" clip-path="url(#clipPath2)"/>
      <text x="686.8935" font-size="13px" y="290.297" clip-path="url(#clipPath3)" font-family="sans-serif" stroke="none" font-weight="bold" xml:space="preserve">TMCM_1234</text>
      <line stroke-linecap="square" clip-path="url(#clipPath3)" fill="none" x1="653" x2="795" y1="299" y2="299" stroke-miterlimit="10"/>
      <text x="657.6" xml:space="preserve" y="316.9341" clip-path="url(#clipPath3)" font-family="sans-serif" stroke="none">MOTORS</text>
      <text x="657.6" xml:space="preserve" y="333.2782" clip-path="url(#clipPath3)" font-family="sans-serif" stroke="none">GPs</text>
      <text x="657.6" xml:space="preserve" y="349.6223" clip-path="url(#clipPath3)" font-family="sans-serif" stroke="none">ENUMs</text>
      <line stroke-linecap="square" clip-path="url(#clipPath3)" fill="none" x1="653" x2="795" y1="358" y2="358" stroke-miterlimit="10"/>
      <text x="657.6" xml:space="preserve" y="375.9665" clip-path="url(#clipPath3)" font-family="sans-serif" stroke="none">...</text>
    </g>
    <g fill="rgb(255,255,153)" text-rendering="geometricPrecision" shape-rendering="geometricPrecision" transform="matrix(1,0,0,1,-348,393)" stroke="rgb(255,255,153)">
      <rect x="621" width="207.2" height="179.6" y="12.4" clip-path="url(#clipPath2)" stroke="none"/>
    </g>
    <g text-rendering="geometricPrecision" stroke-miterlimit="1.45" shape-rendering="geometricPrecision" transform="matrix(1,0,0,1,-348,393)" stroke-linecap="butt">
      <rect fill="none" x="621" width="207.2" height="179.6" y="12.4" clip-path="url(#clipPath2)"/>
      <text x="682.7855" font-size="13px" y="31.297" clip-path="url(#clipPath4)" font-family="sans-serif" stroke="none" font-weight="bold" xml:space="preserve">tmcl_module</text>
      <line stroke-linecap="square" clip-path="url(#clipPath4)" fill="none" x1="622" x2="827" y1="40" y2="40" stroke-miterlimit="10"/>
      <text x="626" xml:space="preserve" y="57.9341" clip-path="url(#clipPath4)" font-family="sans-serif" stroke="none">...</text>
      <line stroke-linecap="square" clip-path="url(#clipPath4)" fill="none" x1="622" x2="827" y1="66" y2="66" stroke-miterlimit="10"/>
      <text x="626" xml:space="preserve" y="84.2782" clip-path="url(#clipPath4)" font-family="sans-serif" stroke="none">set_axis_parameter(...)</text>
      <text x="626" xml:space="preserve" y="100.6223" clip-path="url(#clipPath4)" font-family="sans-serif" stroke="none">get_axis_parameter(...)</text>
      <text x="626" xml:space="preserve" y="116.9664" clip-path="url(#clipPath4)" font-family="sans-serif" stroke="none">set_global_parameter(...)</text>
      <text x="626" xml:space="preserve" y="133.3106" clip-path="url(#clipPath4)" font-family="sans-serif" stroke="none">get_global_parameter(...)</text>
      <text x="626" xml:space="preserve" y="149.6547" clip-path="url(#clipPath4)" font-family="sans-serif" stroke="none">get_analog_input(...)</text>
      <text x="626" xml:space="preserve" y="165.9988" clip-path="url(#clipPath4)" font-family="sans-serif" stroke="none">get_digital_input(...)</text>
      <text x="626" xml:space="preserve" y="182.3429" clip-path="url(#clipPath4)" font-family="sans-serif" stroke="none">set_digital_output(...)</text>
    </g>
    <g fill="rgb(255,255,153)" text-rendering="geometricPrecision" shape-rendering="geometricPrecision" transform="matrix(1,0,0,1,-348,393)" stroke="rgb(255,255,153)">
      <rect x="898.8" width="144" height="97.2" y="281.8" clip-path="url(#clipPath2)" stroke="none"/>
    </g>
    <g text-rendering="geometricPrecision" stroke-miterlimit="1.45" shape-rendering="geometricPrecision" transform="matrix(1,0,0,1,-348,393)" stroke-linecap="butt">
      <rect fill="none" x="898.8" width="144" height="97.2" y="281.8" clip-path="url(#clipPath2)"/>
      <text x="939.8795" font-size="13px" y="300.697" clip-path="url(#clipPath5)" font-family="sans-serif" stroke="none" font-weight="bold" xml:space="preserve">MOTOR_0</text>
      <line stroke-linecap="square" clip-path="url(#clipPath5)" fill="none" x1="899" x2="1041" y1="309" y2="309" stroke-miterlimit="10"/>
      <text x="903.8" xml:space="preserve" y="327.3341" clip-path="url(#clipPath5)" font-family="sans-serif" stroke="none">APs</text>
      <text x="903.8" xml:space="preserve" y="343.6782" clip-path="url(#clipPath5)" font-family="sans-serif" stroke="none">...</text>
      <line stroke-linecap="square" clip-path="url(#clipPath5)" fill="none" x1="899" x2="1041" y1="352" y2="352" stroke-miterlimit="10"/>
      <text x="903.8" xml:space="preserve" y="370.0223" clip-path="url(#clipPath5)" font-family="sans-serif" stroke="none">...</text>
    </g>
    <g fill="rgb(255,255,153)" text-rendering="geometricPrecision" shape-rendering="geometricPrecision" transform="matrix(1,0,0,1,-348,393)" stroke="rgb(255,255,153)">
      <rect x="892" width="157.6" height="146.8" y="28.8" clip-path="url(#clipPath2)" stroke="none"/>
    </g>
    <g text-rendering="geometricPrecision" stroke-miterlimit="1.45" shape-rendering="geometricPrecision" transform="matrix(1,0,0,1,-348,393)" stroke-linecap="butt">
      <rect fill="none" x="892" width="157.6" height="146.8" y="28.8" clip-path="url(#clipPath2)"/>
      <text x="907.1844" font-size="13px" y="47.697" clip-path="url(#clipPath6)" font-family="sans-serif" stroke="none" font-weight="bold" xml:space="preserve">tmcl_module.Motor</text>
      <line stroke-linecap="square" clip-path="url(#clipPath6)" fill="none" x1="892" x2="1048" y1="56" y2="56" stroke-miterlimit="10"/>
      <text x="897" xml:space="preserve" y="74.3341" clip-path="url(#clipPath6)" font-family="sans-serif" stroke="none">axis</text>
      <text x="897" xml:space="preserve" y="90.6782" clip-path="url(#clipPath6)" font-family="sans-serif" stroke="none">module</text>
      <line stroke-linecap="square" clip-path="url(#clipPath6)" fill="none" x1="892" x2="1048" y1="99" y2="99" stroke-miterlimit="10"/>
      <text x="897" xml:space="preserve" y="117.0223" clip-path="url(#clipPath6)" font-family="sans-serif" stroke="none">set_axis_parameter(...)</text>
      <text x="897" xml:space="preserve" y="133.3665" clip-path="url(#clipPath6)" font-family="sans-serif" stroke="none">get_axis_parameter(...)</text>
      <text x="897" xml:space="preserve" y="149.7106" clip-path="url(#clipPath6)" font-family="sans-serif" stroke="none">get_status_flags(...)</text>
      <text x="897" xml:space="preserve" y="166.0547" clip-path="url(#clipPath6)" font-family="sans-serif" stroke="none">get_error_flags(...)</text>
    </g>
    <g fill="rgb(255,255,153)" text-rendering="geometricPrecision" shape-rendering="geometricPrecision" transform="matrix(1,0,0,1,-348,393)" stroke="rgb(255,255,153)">
      <rect x="1200.6" width="144" height="81.2" y="7.2" clip-path="url(#clipPath2)" stroke="none"/>
    </g>
    <g text-rendering="geometricPrecision" stroke-miterlimit="1.45" shape-rendering="geometricPrecision" transform="matrix(1,0,0,1,-348,393)" stroke-linecap="butt">
      <rect fill="none" x="1200.6" width="144" height="81.2" y="7.2" clip-path="url(#clipPath2)"/>
      <text x="1218.6825" font-size="13px" y="26.097" clip-path="url(#clipPath7)" font-family="sans-serif" stroke="none" font-weight="bold" xml:space="preserve">FeatureXModule</text>
      <line stroke-linecap="square" clip-path="url(#clipPath7)" fill="none" x1="1201" x2="1343" y1="34" y2="34" stroke-miterlimit="10"/>
      <text x="1205.6" xml:space="preserve" y="52.7341" clip-path="url(#clipPath7)" font-family="sans-serif" stroke="none">...</text>
      <line stroke-linecap="square" clip-path="url(#clipPath7)" fill="none" x1="1201" x2="1343" y1="61" y2="61" stroke-miterlimit="10"/>
      <text x="1205.6" xml:space="preserve" y="79.0782" clip-path="url(#clipPath7)" font-family="sans-serif" stroke="none">...</text>
    </g>
    <g fill="rgb(255,255,153)" text-rendering="geometricPrecision" shape-rendering="geometricPrecision" transform="matrix(1,0,0,1,-348,393)" stroke="rgb(255,255,153)">
      <rect x="1200.6" width="144" height="81.2" y="134" clip-path="url(#clipPath2)" stroke="none"/>
    </g>
    <g text-rendering="geometricPrecision" stroke-miterlimit="1.45" shape-rendering="geometricPrecision" transform="matrix(1,0,0,1,-348,393)" stroke-linecap="butt">
      <rect fill="none" x="1200.6" width="144" height="81.2" y="134" clip-path="url(#clipPath2)"/>
      <text x="1218.9619" font-size="13px" y="152.897" clip-path="url(#clipPath8)" font-family="sans-serif" stroke="none" font-weight="bold" xml:space="preserve">FeatureYModule</text>
      <line stroke-linecap="square" clip-path="url(#clipPath8)" fill="none" x1="1201" x2="1343" y1="161" y2="161" stroke-miterlimit="10"/>
      <text x="1205.6" xml:space="preserve" y="179.5341" clip-path="url(#clipPath8)" font-family="sans-serif" stroke="none">...</text>
      <line stroke-linecap="square" clip-path="url(#clipPath8)" fill="none" x1="1201" x2="1343" y1="188" y2="188" stroke-miterlimit="10"/>
      <text x="1205.6" xml:space="preserve" y="205.8782" clip-path="url(#clipPath8)" font-family="sans-serif" stroke="none">...</text>
    </g>
    <g fill="rgb(255,255,153)" text-rendering="geometricPrecision" shape-rendering="geometricPrecision" transform="matrix(1,0,0,1,-348,393)" stroke="rgb(255,255,153)">
      <rect x="1200.6" width="144" height="81.2" y="260.8" clip-path="url(#clipPath2)" stroke="none"/>
    </g>
    <g text-rendering="geometricPrecision" stroke-miterlimit="1.45" shape-rendering="geometricPrecision" transform="matrix(1,0,0,1,-348,393)" stroke-linecap="butt">
      <rect fill="none" x="1200.6" width="144" height="81.2" y="260.8" clip-path="url(#clipPath2)"/>
      <text x="1219.2544" font-size="13px" y="279.697" clip-path="url(#clipPath9)" font-family="sans-serif" stroke="none" font-weight="bold" xml:space="preserve">FeatureZModule</text>
      <line stroke-linecap="square" clip-path="url(#clipPath9)" fill="none" x1="1201" x2="1343" y1="288" y2="288" stroke-miterlimit="10"/>
      <text x="1205.6" xml:space="preserve" y="306.3341" clip-path="url(#clipPath9)" font-family="sans-serif" stroke="none">...</text>
      <line stroke-linecap="square" clip-path="url(#clipPath9)" fill="none" x1="1201" x2="1343" y1="314" y2="314" stroke-miterlimit="10"/>
      <text x="1205.6" xml:space="preserve" y="332.6782" clip-path="url(#clipPath9)" font-family="sans-serif" stroke="none">...</text>
    </g>
    <g fill="rgb(255,255,153)" text-rendering="geometricPrecision" shape-rendering="geometricPrecision" transform="matrix(1,0,0,1,-348,393)" stroke="rgb(255,255,153)">
      <rect x="393.2" width="134.4" height="163.2" y="271.4" clip-path="url(#clipPath2)" stroke="none"/>
    </g>
    <g text-rendering="geometricPrecision" stroke-miterlimit="1.45" shape-rendering="geometricPrecision" transform="matrix(1,0,0,1,-348,393)" stroke-linecap="butt">
      <rect fill="none" x="393.2" width="134.4" height="163.2" y="271.4" clip-path="url(#clipPath2)"/>
      <text x="407.282" font-size="13px" y="290.297" clip-path="url(#clipPath10)" font-family="sans-serif" stroke="none" font-weight="bold" xml:space="preserve">x_tmcl_interface</text>
      <line stroke-linecap="square" clip-path="url(#clipPath10)" fill="none" x1="394" x2="526" y1="299" y2="299" stroke-miterlimit="10"/>
      <text x="398.2" xml:space="preserve" y="316.9341" clip-path="url(#clipPath10)" font-family="sans-serif" stroke="none">...</text>
      <line stroke-linecap="square" clip-path="url(#clipPath10)" fill="none" x1="394" x2="526" y1="325" y2="325" stroke-miterlimit="10"/>
      <text x="398.2" xml:space="preserve" y="343.2782" clip-path="url(#clipPath10)" font-family="sans-serif" stroke="none">__init__(...)</text>
      <text x="398.2" xml:space="preserve" y="359.6223" clip-path="url(#clipPath10)" font-family="sans-serif" stroke="none">close(...)</text>
      <text x="398.2" xml:space="preserve" y="375.9665" clip-path="url(#clipPath10)" font-family="sans-serif" stroke="none">_send(...)</text>
      <text x="398.2" xml:space="preserve" y="392.3106" clip-path="url(#clipPath10)" font-family="sans-serif" stroke="none">_recv(...)</text>
      <text x="398.2" xml:space="preserve" y="408.6547" clip-path="url(#clipPath10)" font-family="sans-serif" stroke="none">__enter__(...)</text>
      <text x="398.2" xml:space="preserve" y="424.9988" clip-path="url(#clipPath10)" font-family="sans-serif" stroke="none">__exit__(...)</text>
    </g>
    <g fill="rgb(255,255,153)" text-rendering="geometricPrecision" shape-rendering="geometricPrecision" transform="matrix(1,0,0,1,-348,393)" stroke="rgb(255,255,153)">
      <rect x="363.6" width="193.6" height="569.6" y="-377.6" clip-path="url(#clipPath2)" stroke="none"/>
    </g>
    <g text-rendering="geometricPrecision" stroke-miterlimit="1.45" shape-rendering="geometricPrecision" transform="matrix(1,0,0,1,-348,393)" stroke-linecap="butt">
      <rect fill="none" x="363.6" width="193.6" height="569.6" y="-377.6" clip-path="url(#clipPath2)"/>
      <text x="413.7105" font-size="13px" y="-358.703" clip-path="url(#clipPath11)" font-family="sans-serif" stroke="none" font-weight="bold" xml:space="preserve">tmcl_interface</text>
      <line stroke-linecap="square" clip-path="url(#clipPath11)" fill="none" x1="364" x2="556" y1="-349" y2="-349" stroke-miterlimit="10"/>
      <text x="368.6" xml:space="preserve" y="-332.0659" clip-path="url(#clipPath11)" font-family="sans-serif" stroke="none">_HOST_ID</text>
      <text x="368.6" xml:space="preserve" y="-315.7218" clip-path="url(#clipPath11)" font-family="sans-serif" stroke="none">_MODULE_ID</text>
      <line stroke-linecap="square" clip-path="url(#clipPath11)" fill="none" x1="364" x2="556" y1="-307" y2="-307" stroke-miterlimit="10"/>
      <text x="368.6" xml:space="preserve" y="-289.3777" clip-path="url(#clipPath11)" font-family="sans-serif" stroke="none">send(...)</text>
      <text x="368.6" xml:space="preserve" y="-273.0335" clip-path="url(#clipPath11)" font-family="sans-serif" stroke="none">send_request(...)</text>
      <text x="368.6" xml:space="preserve" y="-256.6894" clip-path="url(#clipPath11)" font-family="sans-serif" stroke="none">sendBoot(...)</text>
      <text x="368.6" xml:space="preserve" y="-240.3453" clip-path="url(#clipPath11)" font-family="sans-serif" stroke="none">getVersionString(...)</text>
      <text x="368.6" xml:space="preserve" y="-224.0012" clip-path="url(#clipPath11)" font-family="sans-serif" stroke="none">parameter(...)</text>
      <text x="368.6" xml:space="preserve" y="-207.6571" clip-path="url(#clipPath11)" font-family="sans-serif" stroke="none">setParameter(...)</text>
      <text x="368.6" xml:space="preserve" y="-191.313" clip-path="url(#clipPath11)" font-family="sans-serif" stroke="none">axisParameter(...)</text>
      <text x="368.6" xml:space="preserve" y="-174.9689" clip-path="url(#clipPath11)" font-family="sans-serif" stroke="none">setAxisParameter(...)</text>
      <text x="368.6" xml:space="preserve" y="-158.6248" clip-path="url(#clipPath11)" font-family="sans-serif" stroke="none">storeAxisParameter(...)</text>
      <text x="368.6" xml:space="preserve" y="-142.2806" clip-path="url(#clipPath11)" font-family="sans-serif" stroke="none">setAndStoreAxisParameter(...)</text>
      <text x="368.6" xml:space="preserve" y="-125.9365" clip-path="url(#clipPath11)" font-family="sans-serif" stroke="none">globalParameter(...)</text>
      <text x="368.6" xml:space="preserve" y="-109.5924" clip-path="url(#clipPath11)" font-family="sans-serif" stroke="none">setGlobalParameter(...)</text>
      <text x="368.6" xml:space="preserve" y="-93.2483" clip-path="url(#clipPath11)" font-family="sans-serif" stroke="none">storeGlobalParameter(...)</text>
      <text x="368.6" xml:space="preserve" y="-76.9042" clip-path="url(#clipPath11)" font-family="sans-serif" stroke="none">setAndStoreGlobalParameter(...)</text>
      <text x="368.6" xml:space="preserve" y="-60.5601" clip-path="url(#clipPath11)" font-family="sans-serif" stroke="none">writeMC(...)</text>
      <text x="368.6" xml:space="preserve" y="-44.216" clip-path="url(#clipPath11)" font-family="sans-serif" stroke="none">readMC(...)</text>
      <text x="368.6" xml:space="preserve" y="-27.8718" clip-path="url(#clipPath11)" font-family="sans-serif" stroke="none">writeDRV(..)</text>
      <text x="368.6" xml:space="preserve" y="-11.5277" clip-path="url(#clipPath11)" font-family="sans-serif" stroke="none">readDRV(...)</text>
      <text x="368.6" xml:space="preserve" y="4.8164" clip-path="url(#clipPath11)" font-family="sans-serif" stroke="none">readRegister(...)</text>
      <text x="368.6" xml:space="preserve" y="21.1605" clip-path="url(#clipPath11)" font-family="sans-serif" stroke="none">writeRegister(...)</text>
      <text x="368.6" xml:space="preserve" y="37.5046" clip-path="url(#clipPath11)" font-family="sans-serif" stroke="none">rotate(...)</text>
      <text x="368.6" xml:space="preserve" y="53.8487" clip-path="url(#clipPath11)" font-family="sans-serif" stroke="none">stop(...)</text>
      <text x="368.6" xml:space="preserve" y="70.1928" clip-path="url(#clipPath11)" font-family="sans-serif" stroke="none">move(...)</text>
      <text x="368.6" xml:space="preserve" y="86.537" clip-path="url(#clipPath11)" font-family="sans-serif" stroke="none">moveTo(...)</text>
      <text x="368.6" xml:space="preserve" y="102.8811" clip-path="url(#clipPath11)" font-family="sans-serif" stroke="none">moveBy(...)</text>
      <text x="368.6" xml:space="preserve" y="119.2252" clip-path="url(#clipPath11)" font-family="sans-serif" stroke="none">analogInput(...)</text>
      <text x="368.6" xml:space="preserve" y="135.5693" clip-path="url(#clipPath11)" font-family="sans-serif" stroke="none">digitalInput(...)</text>
      <text x="368.6" xml:space="preserve" y="151.9134" clip-path="url(#clipPath11)" font-family="sans-serif" stroke="none">digitalOutput(...)</text>
      <text x="368.6" xml:space="preserve" y="168.2575" clip-path="url(#clipPath11)" font-family="sans-serif" stroke="none">setDigitalOutput(...)</text>
      <text x="368.6" xml:space="preserve" y="184.6017" clip-path="url(#clipPath11)" font-family="sans-serif" stroke="none">clearDigitalOutput(...)</text>
    </g>
    <g fill="rgb(255,255,153)" text-rendering="geometricPrecision" shape-rendering="geometricPrecision" transform="matrix(1,0,0,1,-348,393)" stroke="rgb(255,255,153)">
      <ellipse rx="90.625" ry="25" clip-path="url(#clipPath2)" cx="844.3405" cy="568.1683" stroke="none"/>
    </g>
    <g font-size="13px" stroke-linecap="butt" transform="matrix(1,0,0,1,-348,393)" text-rendering="geometricPrecision" font-family="sans-serif" shape-rendering="geometricPrecision" stroke-miterlimit="1.45">
      <text x="782.2914" xml:space="preserve" y="573.2123" clip-path="url(#clipPath2)" stroke="none">Implementing script</text>
      <ellipse rx="90.625" fill="none" ry="25" clip-path="url(#clipPath2)" cx="844.3405" cy="568.1683"/>
      <path fill="none" d="M724.6 271.3722 L724.6 207.0314" clip-path="url(#clipPath2)"/>
    </g>
    <g stroke-linecap="butt" transform="matrix(1,0,0,1,-348,393)" fill="white" text-rendering="geometricPrecision" shape-rendering="geometricPrecision" stroke="white" stroke-miterlimit="1.45">
      <path d="M724.6 192.0314 L718.6 208.0314 L730.6 208.0314 Z" stroke="none" clip-path="url(#clipPath2)"/>
      <path fill="none" d="M724.6 192.0314 L718.6 208.0314 L730.6 208.0314 Z" clip-path="url(#clipPath2)" stroke="black"/>
      <path fill="none" d="M803.5786 330.4 L898.7891 330.4" clip-path="url(#clipPath2)" stroke="black"/>
      <path d="M796.5786 330.4 L803.5786 325.4 L810.5786 330.4 L803.5786 335.4 Z" clip-path="url(#clipPath2)" stroke="none"/>
      <path fill="none" d="M796.5786 330.4 L803.5786 325.4 L810.5786 330.4 L803.5786 335.4 Z" clip-path="url(#clipPath2)" stroke="black"/>
      <path fill="none" d="M970.8 281.7905 L970.8 190.6409" clip-path="url(#clipPath2)" stroke="black"/>
      <path d="M970.8 175.6409 L964.8 191.6409 L976.8 191.6409 Z" clip-path="url(#clipPath2)" stroke="none"/>
      <path fill="none" d="M970.8 175.6409 L964.8 191.6409 L976.8 191.6409 Z" clip-path="url(#clipPath2)" stroke="black"/>
      <path fill="none" d="M885.0292 102.2 L828.2214 102.2" clip-path="url(#clipPath2)" stroke="black"/>
      <path fill="black" d="M892.0292 102.2 L885.0292 107.2 L878.0292 102.2 L885.0292 97.2 Z" clip-path="url(#clipPath2)" stroke="none"/>
      <path fill="none" d="M1042.7937 330.4 L1122.4125 330.4 L1122.4125 47.8 L1185.6229 47.8" clip-path="url(#clipPath2)" stroke="black"/>
      <path d="M1200.6229 47.8 L1184.6229 41.8 L1184.6229 53.8 Z" clip-path="url(#clipPath2)" stroke="none"/>
      <path fill="none" d="M1200.6229 47.8 L1184.6229 41.8 L1184.6229 53.8 Z" clip-path="url(#clipPath2)" stroke="black"/>
      <path fill="none" d="M1042.7937 330.4 L1122.4125 330.4 L1122.4125 174.6 L1185.6229 174.6" clip-path="url(#clipPath2)" stroke="black"/>
      <path d="M1200.6229 174.6 L1184.6229 168.6 L1184.6229 180.6 Z" clip-path="url(#clipPath2)" stroke="none"/>
      <path fill="none" d="M1200.6229 174.6 L1184.6229 168.6 L1184.6229 180.6 Z" clip-path="url(#clipPath2)" stroke="black"/>
      <path fill="none" d="M1042.7937 330.4 L1122.4125 330.4 L1122.4125 301.4 L1185.6229 301.4" clip-path="url(#clipPath2)" stroke="black"/>
      <path d="M1200.6229 301.4 L1184.6229 295.4 L1184.6229 307.4 Z" clip-path="url(#clipPath2)" stroke="none"/>
      <path fill="none" d="M1200.6229 301.4 L1184.6229 295.4 L1184.6229 307.4 Z" clip-path="url(#clipPath2)" stroke="black"/>
      <path fill="none" d="M645.5808 330.4 L527.5767 330.4" clip-path="url(#clipPath2)" stroke="black"/>
      <path fill="black" d="M652.5808 330.4 L645.5808 335.4 L638.5808 330.4 L645.5808 325.4 Z" clip-path="url(#clipPath2)" stroke="none"/>
      <path fill="none" d="M460.4 271.3988 L460.4 207.0415" clip-path="url(#clipPath2)" stroke="black"/>
      <path d="M460.4 192.0415 L454.4 208.0415 L466.4 208.0415 Z" clip-path="url(#clipPath2)" stroke="none"/>
      <path fill="none" d="M460.4 192.0415 L454.4 208.0415 L466.4 208.0415 Z" clip-path="url(#clipPath2)" stroke="black"/>
      <path fill="none" stroke-dasharray="6,2" d="M831.8702 543.4061 L756.5604 393.8636" clip-path="url(#clipPath2)" stroke="black"/>
      <path fill="black" stroke-dasharray="6,2" d="M754.7612 390.291 L754.7998 403.7074 L754.7612 390.291 L765.5175 398.31 Z" clip-path="url(#clipPath2)" stroke="none"/>
    </g>
    <g text-rendering="geometricPrecision" shape-rendering="geometricPrecision" transform="matrix(1,0,0,1,-348,393)">
      <path fill="none" d="M754.7612 390.291 L754.7998 403.7074 L754.7612 390.291 L765.5175 398.31 Z" clip-path="url(#clipPath2)"/>
      <text stroke-linecap="butt" x="738.2155" y="459.2464" clip-path="url(#clipPath2)" font-family="sans-serif" stroke="none" stroke-miterlimit="1.45" xml:space="preserve">Access</text>
      <path fill="none" stroke-miterlimit="1.45" stroke-dasharray="6,2" d="M857.4962 543.4331 L942.6019 383.4178" clip-path="url(#clipPath2)" stroke-linecap="butt"/>
      <path stroke-miterlimit="1.45" stroke-dasharray="6,2" d="M944.4802 379.8863 L933.548 387.6636 L944.4802 379.8863 L944.1428 393.2984 Z" clip-path="url(#clipPath2)" stroke-linecap="butt" stroke="none"/>
      <path fill="none" d="M944.4802 379.8863 L933.548 387.6636 L944.4802 379.8863 L944.1428 393.2984 Z" clip-path="url(#clipPath2)"/>
      <text stroke-linecap="butt" x="859.4655" y="447.9964" clip-path="url(#clipPath2)" font-family="sans-serif" stroke="none" stroke-miterlimit="1.45" xml:space="preserve">Access</text>
      <path fill="none" stroke-miterlimit="1.45" stroke-dasharray="6,2" d="M804.3173 545.7384 L531.975 393.1122" clip-path="url(#clipPath2)" stroke-linecap="butt"/>
      <path stroke-miterlimit="1.45" stroke-dasharray="6,2" d="M528.4857 391.1566 L536.0205 402.2573 L528.4857 391.1566 L541.8871 391.7891 Z" clip-path="url(#clipPath2)" stroke-linecap="butt" stroke="none"/>
      <path fill="none" d="M528.4857 391.1566 L536.0205 402.2573 L528.4857 391.1566 L541.8871 391.7891 Z" clip-path="url(#clipPath2)"/>
      <text stroke-linecap="butt" x="588.2155" y="482.9964" clip-path="url(#clipPath2)" font-family="sans-serif" stroke="none" stroke-miterlimit="1.45" xml:space="preserve">Initialization</text>
    </g>
  </g>
</svg>
